<?xml version="1.0" standalone="no"?>
<!DOCTYPE svg PUBLIC "-//W3C//DTD SVG 20010904//EN"
 "http://www.w3.org/TR/2001/REC-SVG-20010904/DTD/svg10.dtd">
<svg version="1.0" xmlns="http://www.w3.org/2000/svg"
 width="300.000000pt" height="198.000000pt" viewBox="0 0 300.000000 198.000000"
 preserveAspectRatio="xMidYMid meet">
<metadata>
Created by potrace 1.10, written by Peter Selinger 2001-2011
</metadata>
<g transform="translate(0.000000,198.000000) scale(0.100000,-0.100000)"
fill="#000000" stroke="none">
<path d="M2134 1844 c-94 -57 -192 -136 -294 -238 -52 -53 -101 -96 -110 -97
-11 0 -11 -2 -2 -6 7 -3 62 42 125 104 109 105 242 213 262 212 6 0 -6 -12
-25 -27 -19 -14 -89 -80 -155 -147 -105 -105 -107 -107 -15 -19 122 118 205
186 260 214 47 24 50 24 50 5 0 -40 -199 -371 -221 -368 -8 2 -45 9 -84 17
-38 9 -83 15 -100 15 -16 -1 4 -7 47 -14 42 -7 93 -18 113 -25 20 -7 38 -10
39 -8 12 12 172 280 192 319 13 27 24 58 24 70 0 18 2 19 15 9 8 -7 15 -20 16
-29 0 -11 2 -12 6 -3 8 20 -27 52 -57 52 -14 0 -53 -16 -86 -36z"/>
<path d="M2267 1758 c-4 -14 -17 -39 -30 -55 -34 -42 -123 -193 -114 -193 2 0
25 36 51 80 26 44 52 82 57 86 15 9 51 84 46 97 -2 7 -7 0 -10 -15z"/>
<path d="M2113 1553 c-17 -32 -28 -64 -25 -72 3 -8 0 -11 -7 -7 -6 4 -14 0
-17 -9 -5 -11 4 -28 25 -48 17 -17 31 -26 31 -20 0 7 -11 20 -25 29 -14 9 -25
24 -25 33 0 13 2 13 9 2 7 -10 12 -8 24 9 9 12 13 28 11 35 -3 7 4 32 16 55
12 23 19 44 17 46 -3 3 -18 -21 -34 -53z"/>
<path d="M2563 1506 c-28 -36 -46 -83 -39 -102 8 -22 18 -16 60 35 38 46 44
83 15 89 -9 2 -26 -8 -36 -22z m47 -1 c0 -17 -60 -104 -72 -105 -16 0 -7 34
17 77 26 42 55 58 55 28z"/>
<path d="M1581 1485 c-220 -48 -395 -157 -415 -260 -5 -25 -5 -27 4 -10 9 18
10 17 7 -7 -3 -17 2 -33 13 -43 23 -21 141 -77 148 -70 8 7 5 9 -78 48 -75 36
-75 36 -75 75 0 22 4 44 9 49 5 5 6 0 2 -12 -5 -14 4 -9 31 16 21 20 57 46 81
58 23 12 42 24 42 26 0 8 -82 -36 -117 -63 -47 -35 -41 -10 8 31 86 74 226
131 394 161 44 8 64 14 45 14 -19 0 -64 -6 -99 -13z"/>
<path d="M1680 1437 c0 -8 -9 -22 -20 -32 -24 -22 -121 -162 -189 -274 -27
-45 -53 -81 -58 -81 -4 1 -12 8 -17 17 -6 12 -10 12 -16 3 -6 -9 -13 -9 -28
-1 -20 11 -27 3 -97 -104 -114 -175 -164 -260 -206 -350 -29 -62 -54 -97 -101
-143 -218 -211 -470 -334 -659 -320 -55 4 -65 8 -94 40 -58 63 -55 166 10 268
50 79 139 132 390 234 144 59 163 71 172 104 5 22 -1 32 -37 64 -23 21 -65 46
-92 56 -63 22 -103 62 -94 95 11 45 92 123 168 162 57 29 86 37 147 41 53 4
83 1 101 -8 23 -13 25 -20 24 -79 -1 -80 -24 -132 -94 -209 -27 -30 -50 -59
-50 -64 0 -11 40 -46 53 -46 41 0 139 114 158 183 14 54 6 132 -19 190 -34 76
-153 125 -227 93 -27 -12 -23 -13 45 -9 68 4 78 2 101 -19 l26 -23 -96 -1
c-96 0 -115 -5 -218 -56 -44 -22 -123 -110 -123 -137 0 -11 -3 -12 -11 -4 -26
26 84 146 186 204 31 17 54 34 51 37 -3 3 -12 0 -19 -6 -8 -7 -17 -9 -20 -5
-4 3 -7 1 -7 -6 0 -7 -5 -11 -11 -9 -7 2 -23 -5 -37 -17 -129 -107 -162 -150
-162 -211 0 -60 31 -92 132 -137 46 -21 90 -47 97 -59 12 -20 10 -24 -20 -49
-26 -21 -173 -88 -209 -95 -3 0 -23 -9 -45 -19 -60 -26 -89 -38 -102 -41 -18
-3 -68 -42 -122 -94 -44 -41 -91 -127 -91 -163 0 -20 -37 -29 -44 -10 -22 56
31 168 113 241 44 39 131 92 185 113 28 11 60 24 71 29 11 6 65 23 120 39 55
16 109 32 119 37 15 6 17 4 11 -6 -6 -9 -4 -11 4 -5 7 4 9 11 4 16 -9 9 -213
-48 -307 -87 -184 -75 -317 -204 -333 -323 -4 -27 6 -63 39 -146 42 -103 47
-111 89 -133 40 -22 53 -23 131 -19 95 6 192 39 300 102 100 59 328 244 328
266 0 6 9 19 20 31 11 12 40 64 65 116 74 154 257 442 280 442 8 0 19 -9 25
-19 8 -15 3 -30 -26 -73 -20 -29 -45 -61 -56 -70 -11 -10 -16 -18 -12 -18 5 0
2 -6 -6 -13 -9 -7 -38 -46 -64 -87 -27 -41 -56 -86 -66 -100 -42 -62 -120
-255 -120 -298 0 -34 -14 -34 -26 0 l-12 33 -1 -38 c-1 -52 42 -98 87 -93 46
6 71 23 140 89 57 57 79 88 50 71 -7 -4 -2 6 12 22 39 44 84 105 105 141 10
17 28 36 40 41 12 6 44 45 71 87 27 42 64 100 83 128 47 72 103 196 99 221 -5
32 -36 32 -48 0 -6 -15 -35 -71 -64 -123 -65 -116 -91 -163 -169 -306 -51 -92
-78 -127 -166 -217 -83 -83 -115 -109 -149 -119 -32 -9 -45 -10 -54 -1 -9 9
-8 12 4 12 11 0 15 6 11 19 -15 58 101 330 176 410 13 14 59 78 102 141 63 92
77 120 72 140 -6 23 -5 24 11 11 12 -10 15 -23 11 -40 -3 -16 5 -7 19 21 53
102 201 322 253 379 16 17 21 29 14 33 -6 4 -11 1 -11 -7z m-639 -315 c22 -94
-6 -178 -84 -249 -48 -45 -65 -51 -85 -31 -13 13 -2 38 35 77 60 63 114 210
96 258 -7 17 -6 17 11 0 10 -10 22 -35 27 -55z m609 -61 c0 -5 -5 -22 -12 -38
-6 -15 -12 -31 -12 -34 -1 -4 -22 -40 -47 -80 -26 -41 -54 -87 -62 -104 -23
-43 -66 -93 -67 -76 0 25 176 341 191 341 5 0 9 -4 9 -9z m-1120 -889 c0 -9
-55 -35 -100 -48 -75 -21 -208 -5 -219 27 -4 12 -1 12 12 0 29 -23 202 -13
277 18 14 5 26 10 28 10 1 1 2 -3 2 -7z"/>
<path d="M1739 1433 c-12 -14 -12 -16 0 -9 9 6 12 4 9 -5 -3 -8 -11 -14 -19
-14 -8 0 -14 -9 -14 -20 0 -11 -5 -19 -12 -18 -12 3 -65 -69 -112 -152 -22
-38 -22 -38 -2 -15 39 45 62 80 55 80 -4 0 1 7 12 15 10 8 15 15 10 15 -10 0
38 40 49 40 4 0 -6 -17 -23 -37 -25 -33 -115 -165 -136 -200 -4 -7 -5 -13 -3
-13 4 0 139 194 172 247 43 69 73 95 103 89 15 -3 50 -8 77 -11 84 -10 84 -11
22 -121 -30 -55 -58 -110 -61 -124 -4 -14 22 31 58 98 36 68 66 128 66 132 0
21 -188 42 -224 25 -14 -6 -17 -5 -12 3 11 18 0 14 -15 -5z"/>
<path d="M1585 1433 c-78 -17 -146 -36 -183 -50 -69 -26 -42 -25 39 2 41 14
110 31 154 39 44 8 64 14 45 14 -19 0 -44 -2 -55 -5z"/>
<path d="M2147 1390 c-8 -11 -17 -17 -20 -13 -4 3 -7 -5 -7 -18 l0 -24 20 25
c11 14 20 28 20 33 0 13 18 7 24 -8 3 -8 -8 -40 -25 -72 -18 -35 -22 -48 -10
-33 11 14 28 42 37 62 14 31 14 40 4 53 -17 20 -26 19 -43 -5z"/>
<path d="M2313 1353 c-41 -62 -204 -233 -222 -233 -15 0 -15 2 14 72 14 34 21
58 16 53 -13 -13 -51 -112 -51 -131 0 -13 5 -12 31 3 40 23 180 171 225 237
23 35 34 45 34 31 0 -11 -9 -33 -20 -50 -11 -16 -20 -34 -20 -40 0 -5 11 8 25
30 51 83 22 109 -32 28z"/>
<path d="M2025 1390 c-3 -5 0 -7 9 -4 8 3 23 1 34 -5 27 -15 23 -70 -11 -141
-15 -30 -26 -62 -26 -70 0 -8 5 -1 11 15 6 17 14 32 18 35 16 11 49 89 40 95
-5 3 -7 18 -4 33 5 23 1 30 -21 40 -32 15 -42 15 -50 2z"/>
<path d="M2453 1324 c-9 -15 -40 -37 -68 -50 -27 -13 -44 -24 -37 -24 24 0 90
39 111 66 16 20 25 24 33 16 8 -8 1 -25 -26 -66 -20 -30 -36 -58 -36 -63 0 -4
19 20 41 54 34 52 39 66 29 78 -18 21 -27 19 -47 -11z"/>
<path d="M2645 1308 c-16 -6 -55 -28 -85 -49 -59 -41 -159 -129 -146 -129 4 0
31 21 60 47 96 87 191 139 235 128 29 -7 19 -18 -32 -35 -57 -18 -152 -87
-237 -171 -70 -70 -87 -92 -152 -194 -32 -51 -88 -178 -88 -200 0 -10 -5 -13
-12 -9 -7 4 -8 3 -4 -4 4 -7 2 -12 -3 -12 -12 0 -14 23 -5 57 4 13 10 21 14
18 5 -3 6 5 2 17 -3 13 -1 19 5 15 7 -5 9 0 6 11 -2 11 3 26 12 36 9 9 13 16
8 16 -4 0 -2 4 6 9 8 5 9 11 3 15 -16 10 -52 -76 -71 -169 -17 -85 -18 -87
-72 -131 -56 -48 -108 -76 -122 -67 -9 5 0 84 14 120 12 32 -16 53 -39 29 -15
-15 -15 -16 -1 -11 25 9 32 -11 19 -51 -9 -27 -15 -33 -21 -23 -6 10 -9 2 -9
-22 0 -45 37 -84 72 -75 43 11 143 111 157 155 12 42 30 55 32 24 0 -10 8 9
18 43 66 231 290 498 475 565 28 11 52 19 55 19 2 0 1 -21 -1 -47 -9 -90 -91
-234 -242 -428 -120 -154 -232 -304 -246 -331 -17 -30 -4 -57 28 -62 16 -3 32
11 64 57 33 45 57 67 104 91 72 37 135 48 169 30 49 -26 38 -90 -20 -114 -36
-15 -207 -117 -280 -167 -56 -38 -125 -109 -132 -137 -8 -33 12 -70 41 -78 84
-21 345 188 422 338 13 25 55 64 129 119 129 97 151 117 142 125 -4 4 -26 -9
-49 -28 -24 -19 -74 -56 -112 -81 l-70 -46 -12 35 c-13 38 -36 60 -72 70 -31
9 -123 -3 -136 -16 -8 -8 -6 -9 8 -4 38 14 5 -16 -43 -40 -31 -16 -63 -45 -90
-81 -42 -56 -72 -69 -79 -33 -3 17 55 104 160 238 32 41 74 95 93 120 19 25
38 50 43 55 39 48 122 184 154 253 32 67 39 93 36 128 -2 24 0 44 3 44 12 0
34 -65 32 -100 -2 -80 -83 -233 -217 -410 -39 -52 -82 -111 -95 -130 -47 -72
52 50 141 174 142 197 203 338 179 416 -20 69 -74 94 -146 68z m38 -799 c5 -4
0 -12 -12 -18 -11 -7 -21 -18 -21 -25 0 -20 -78 -126 -134 -182 -69 -67 -156
-130 -221 -160 -45 -21 -57 -23 -74 -13 -31 20 -32 55 -3 92 28 36 92 90 145
122 18 11 49 30 68 42 19 13 40 23 47 23 6 0 12 4 12 9 0 5 36 27 79 50 62 32
80 47 86 68 5 19 9 23 13 13 3 -8 9 -18 15 -21z"/>
<path d="M2530 405 c-25 -13 -50 -28 -56 -33 -5 -5 -27 -17 -47 -27 -20 -9
-37 -21 -37 -25 0 -4 -19 -20 -42 -35 -45 -30 -102 -87 -120 -120 -5 -11 4 -3
22 18 37 43 139 121 253 191 42 26 77 50 77 52 0 6 -1 6 -50 -21z"/>
<path d="M2556 377 c-41 -54 -179 -165 -251 -202 -37 -19 -61 -35 -55 -35 18
0 131 62 165 90 64 54 138 126 157 152 28 40 14 35 -16 -5z"/>
<path d="M2310 1272 c0 -7 -4 -11 -9 -8 -4 3 -32 -24 -61 -60 -66 -81 -127
-134 -155 -134 -29 0 -59 34 -52 60 3 11 1 20 -4 20 -15 0 -10 -44 7 -68 36
-51 92 -22 205 109 l57 67 20 -20 c16 -16 26 -19 49 -13 15 5 32 9 37 9 5 1
11 7 14 14 3 9 -6 8 -31 -4 -33 -16 -74 -13 -63 4 2 4 1 14 -5 22 -6 11 -9 12
-9 2z"/>
<path d="M1837 1123 c-8 -15 -18 -44 -21 -63 -5 -27 -1 -21 19 24 26 62 27 89
2 39z"/>
<path d="M1876 1074 c-15 -36 -25 -68 -23 -70 2 -2 16 26 30 63 15 37 25 68
23 70 -2 2 -16 -26 -30 -63z"/>
<path d="M2345 1053 c-27 -36 -56 -72 -63 -80 -7 -7 -10 -13 -6 -13 4 0 0 -6
-11 -13 -10 -8 -14 -17 -8 -20 5 -3 32 24 58 61 26 37 59 82 73 100 13 17 20
32 16 32 -5 0 -31 -30 -59 -67z"/>
<path d="M1510 1038 c-17 -29 -33 -64 -36 -78 -2 -14 -13 -41 -22 -60 -14 -27
-23 -34 -42 -32 -13 1 -28 8 -32 15 -6 9 -8 9 -8 -1 0 -7 12 -17 27 -23 24 -9
31 -7 50 16 13 14 25 38 28 53 3 15 21 57 40 95 42 79 38 89 -5 15z"/>
<path d="M1796 1004 c-13 -34 -6 -73 15 -85 16 -8 24 -8 33 1 8 9 7 11 -4 10
-39 -6 -43 -1 -38 45 6 47 4 55 -6 29z"/>
<path d="M1551 698 c-19 -5 -50 -21 -70 -35 -28 -19 -31 -23 -12 -18 14 4 38
16 55 26 34 21 46 23 46 10 0 -5 -10 -11 -23 -15 -13 -3 -34 -15 -48 -26 -57
-50 -138 -133 -160 -165 -13 -19 -32 -35 -41 -35 -10 0 -18 -4 -18 -10 0 -24
40 -8 56 22 26 50 148 164 208 193 67 33 90 30 94 -9 3 -22 6 -26 13 -15 7 12
10 12 18 0 12 -19 20 0 10 26 -16 43 -75 66 -128 51z"/>
<path d="M1845 688 c-28 -15 -75 -60 -75 -71 0 -5 18 7 41 28 24 22 48 35 58
32 9 -3 25 -8 36 -12 17 -6 17 -4 -4 14 -27 24 -29 24 -56 9z"/>
<path d="M2171 642 c-1 -7 4 -22 9 -33 8 -15 7 -19 -5 -19 -22 0 -19 -13 9
-39 15 -14 33 -21 48 -19 23 4 23 5 -4 16 -16 6 -28 19 -28 29 -1 22 -28 83
-29 65z"/>
<path d="M1713 612 c-13 -2 -23 -10 -23 -18 0 -8 -5 -14 -10 -14 -6 0 -14 -10
-19 -22 -17 -45 -91 -132 -135 -159 -24 -15 -47 -33 -51 -38 -3 -6 -22 -11
-42 -11 -33 0 -35 1 -28 28 7 30 67 97 105 117 14 7 34 22 46 33 11 11 35 27
52 36 17 9 33 20 37 25 3 5 -16 -2 -42 -16 -175 -93 -285 -242 -179 -243 58 0
211 131 237 205 9 25 23 38 50 49 59 24 60 37 2 28z"/>
<path d="M1854 524 c-71 -81 -89 -92 -115 -68 -21 19 -24 49 -9 88 14 39 1 31
-15 -8 -21 -51 5 -106 51 -106 21 0 86 63 135 132 34 48 14 31 -47 -38z"/>
</g>
</svg>
